<svg width="204" height="195" viewBox="0 0 204 195" fill="none" xmlns="http://www.w3.org/2000/svg">
<path d="M14.0226 156.173V153.606C14.0226 151.86 13.5951 150.613 12.7045 149.864C12.1346 149.366 11.5276 149.045 10.8508 148.83C10.2096 148.617 9.13951 148.51 7.60636 148.474V144.232H8.99702C11.2796 144.232 13.2046 144.802 14.809 145.943C17.1258 147.547 18.3028 150.076 18.3028 153.569V156.171H18.5165V160.411H4.64557V156.171L14.0226 156.173Z" fill="#C4AB69"/>
<path d="M23.4716 156.172V155.494C23.4716 154.389 23.6497 153.392 24.0785 152.607C24.6485 151.324 25.6473 150.505 26.9667 150.006V144.268H34.9174C38.8756 144.268 41.6556 146.905 41.6556 150.718V156.171H41.8707V160.411H18.3022V156.171L23.4716 156.172ZM27.7504 156.172H30.4235V154.889C30.4235 154.033 29.9604 153.57 29.0342 153.57C28.1779 153.57 27.7504 154.07 27.7504 154.996V156.172ZM37.3411 156.172V151.111C37.3411 149.365 36.593 148.509 35.0243 148.509H31.2085V150.008C32.8842 150.721 33.598 151.505 34.0967 152.608C34.4872 153.429 34.6667 154.39 34.6667 155.496V156.173L37.3411 156.172Z" fill="#C4AB69"/>
<path d="M41.6555 156.172H49.1075C49.9638 156.172 49.9994 156.065 50.4255 155.956C49.7117 153.605 48.4293 151.359 46.4331 149.719L48.5005 144.622C50.1405 144.408 51.5668 144.266 52.8862 144.266C57.3062 144.266 59.4819 145.941 59.4819 149.291C59.4819 151.393 58.4119 153.675 56.38 156.17H59.66V160.412H56.4855C54.2755 160.412 53.9905 160.376 52.8849 159.912C52.1354 160.339 51.6723 160.412 49.2486 160.412H41.6541V156.172H41.6555ZM53.5631 153.213C54.74 151.859 55.3812 150.789 55.3812 150.006C55.3812 148.937 54.4536 148.437 52.5286 148.402L51.1037 148.473C52.8506 150.362 53.3137 151.538 53.5631 153.213Z" fill="#C4AB69"/>
<path d="M59.4465 156.175H64.6871V137.393H68.9303V160.417H59.4465V156.175Z" fill="#C4AB69"/>
<path d="M76.3804 137.393H72.1386V160.415H76.3804V137.393Z" fill="#C4AB69"/>
<path d="M86.293 150.008H90.5362V161.626C90.7143 162.837 91.0705 163.086 92.3899 163.086H98.5568C99.8406 163.086 100.198 162.837 100.376 161.626V160.414H96.0974V156.174H104.867V160.414H104.618V161.091C104.618 165.154 102.301 167.399 98.1293 167.399H92.7804C88.6085 167.399 86.2916 165.154 86.2916 161.091L86.293 150.008ZM90.4279 170.072H94.6712V174.348H90.4279V170.072ZM96.455 170.072H100.697V174.348H96.455V170.072Z" fill="#C4AB69"/>
<path d="M104.618 156.175H109.859V137.393H114.102V160.417H104.618V156.175Z" fill="#C4AB69"/>
<path d="M117.312 167.399V163.086H123.16C123.979 163.086 124.515 162.908 124.729 162.517C124.87 162.302 124.978 161.983 124.978 161.625V160.414H124.015C120.057 160.414 117.312 157.812 117.312 153.928V150.719C117.312 146.905 120.057 144.27 124.015 144.27H129.257V161.091C129.257 165.155 126.939 167.399 122.768 167.399H117.312ZM124.977 148.51H123.871C122.339 148.51 121.554 149.366 121.554 151.112V153.535C121.554 155.281 122.339 156.173 123.871 156.173H124.977V148.51Z" fill="#C4AB69"/>
<path d="M154.176 160.415H139.094C139.986 150.508 145.834 144.805 154.176 144.271V160.415ZM143.872 137.393H148.186V141.633H143.872V137.393ZM144.55 156.175H149.935V149.474C147.153 150.615 145.405 153.359 144.55 156.175ZM149.933 137.393H154.175V141.633H149.933V137.393Z" fill="#C4AB69"/>
<path d="M156.672 163.231H157.206C159.31 163.231 160.344 162.233 160.344 160.309V144.271H164.586V156.175H164.801V160.415H164.586C164.372 165.868 161.128 167.4 157.242 167.4H156.672V163.231ZM160.344 137.393H164.586V141.633H160.344V137.393Z" fill="#C4AB69"/>
<path d="M164.588 156.172H169.828V144.268H174.072V160.413H164.588V156.172ZM173.963 136.641V138.244H172.537C171.86 138.244 171.504 138.636 171.504 139.42C171.504 140.062 171.932 140.382 172.68 140.382H174.677V142.059H169.152V140.382H170.079C169.935 140.062 169.864 139.777 169.864 139.457C169.864 137.781 171.077 136.641 172.717 136.641H173.963Z" fill="#C4AB69"/>
<path d="M177.28 160.415V137.393H181.522V156.175H181.807V160.415H177.28Z" fill="#C4AB69"/>
<path d="M195.32 156.175V151.114C195.32 149.368 194.571 148.512 193.073 148.512H186.764V144.271H192.932C196.889 144.271 199.635 146.909 199.635 150.721V160.415H181.522V156.175H195.32ZM189.686 163.088H193.965V167.401H189.686V163.088Z" fill="#C4AB69"/>
<path d="M2.93887 118.441V123.391L19.9857 123.406L22.7122 123.417L35.5994 110.535L2.93887 110.52V115.471L23.6439 115.486L20.6694 118.459L2.93887 118.441Z" fill="#C4AB69"/>
<path d="M164.192 118.447L151.306 131.328L201.041 131.313V126.363L163.262 126.38L166.236 123.405L201.041 123.391V118.441L166.919 118.456L164.192 118.447Z" fill="#C4AB69"/>
<path d="M88.3169 115.456L96.2703 123.406H140.119L153.002 110.536H106.13C105.316 109.278 103.905 108.439 102.293 108.439C99.7696 108.439 97.7213 110.487 97.7213 113.01C97.7213 115.534 99.7696 117.58 102.293 117.58C103.905 117.58 105.313 116.745 106.128 115.486H141.041L138.068 118.457H98.3214L90.3665 110.505L41.7059 110.536L25.858 126.377L2.93887 126.362V131.312L22.8985 131.328L27.909 131.327L43.7584 115.483L88.3169 115.456Z" fill="#C4AB69"/>
<path d="M143.569 126.378L46.2598 126.379L49.2329 123.407H80.7905C81.6057 124.662 83.0141 125.495 84.6213 125.495C87.1464 125.495 89.1933 123.449 89.1933 120.923C89.1933 118.399 87.1464 116.354 84.6213 116.354C83.0059 116.354 81.5961 117.195 80.7822 118.456L47.1832 118.455L34.3042 131.329L145.618 131.328L161.466 115.486L201.04 115.471V110.52L159.418 110.535L143.569 126.378Z" fill="#C4AB69"/>
<path d="M142.437 33.9175V73.7221L147.388 68.7724V33.9175C148.648 33.104 149.485 31.6947 149.485 30.084C149.485 27.5598 147.438 25.5137 144.911 25.5137C142.388 25.5137 140.341 27.5598 140.341 30.084C140.341 31.6947 141.178 33.1026 142.437 33.9175Z" fill="#C4AB69"/>
<path d="M185.359 50.3687V75.2953L190.31 80.245V50.3687C191.569 49.5551 192.406 48.1445 192.406 46.5352C192.406 44.011 190.36 41.9648 187.833 41.9648C185.308 41.9648 183.261 44.011 183.261 46.5352C183.262 48.1472 184.101 49.5551 185.359 50.3687Z" fill="#C4AB69"/>
<path d="M203.137 69.3045C203.137 66.7804 201.089 64.7355 198.565 64.7355C196.04 64.7355 193.993 66.7804 193.993 69.3045C193.993 70.9152 194.829 72.3231 196.088 73.138V102.612H190.314L190.343 87.2202L179.579 76.4607V57.311L174.628 64.4123V78.5082L185.384 89.2623L185.361 102.609H179.578V90.447L174.626 85.4973V102.609H168.847V65.1314L163.896 58.0643V102.612H158.118V78.8835L153.167 83.8332V102.61H147.383L147.36 82.6348L158.118 71.8807V49.8193L153.167 42.7535L153.184 42.555H153.167V69.8318L142.403 80.5914L142.432 102.612H136.657V93.1834L125.926 82.4691V68.5143L120.975 73.464V84.5207L131.707 95.2351V102.612H125.927V96.4157L120.976 91.4714V102.613H115.198V81.2159L115.169 72.3108L125.927 61.5567V52.7475L120.976 47.7978V59.5064L110.212 70.266L110.244 102.612H104.466V8.82181C105.725 8.00827 106.564 6.59758 106.564 4.98831C106.564 2.46414 104.517 0.417969 101.992 0.417969C99.4653 0.417969 97.4184 2.46414 97.4184 4.98831C97.4184 6.59758 98.2555 8.0069 99.5146 8.82181V102.612H93.741L93.7684 92.3658L83.0063 81.6062V47.795L78.0533 52.7447V83.6565L88.8114 94.4106L88.7895 102.61H83.0063V95.2132L67.3309 79.5464L67.3227 102.612H61.5422L61.534 81.0694L72.2743 70.3331V47.5033L67.3227 42.5536V68.2814L56.5811 79.0191L56.5907 102.61H50.813L50.8047 76.1169L61.545 65.3806V33.9169C62.8041 33.1034 63.6412 31.6927 63.6412 30.0834C63.6412 27.5592 61.5943 25.5117 59.0692 25.5117C56.5441 25.5117 54.4972 27.5592 54.4972 30.0834C54.4972 31.6927 55.3343 33.102 56.5934 33.9169V63.3331L45.8518 74.0707L45.8614 102.613H40.0837V66.727L45.8614 58.4669V67.1638L50.813 62.2141V42.7522L35.1308 65.1684V102.612H29.3256L29.3544 81.4268L18.5936 70.67L18.6196 50.3726C19.8788 49.5591 20.7186 48.1484 20.7186 46.5377C20.7186 44.0122 18.6703 41.9674 16.1452 41.9674C13.6201 41.9674 11.5746 44.0122 11.5746 46.5377C11.5746 48.147 12.4103 49.555 13.6667 50.3685L13.638 72.7176L24.3987 83.473L24.3727 102.612H18.6196L18.5991 84.7317L13.6421 79.7765L13.6681 102.612H7.89174V73.138C9.15087 72.3245 9.988 70.9152 9.988 69.3045C9.988 66.7804 7.94107 64.7355 5.41597 64.7355C2.89087 64.7355 0.843933 66.7804 0.843933 69.3045C0.843933 70.9152 1.68107 72.3231 2.94019 73.138V103.907V105.085V107.561H5.42556H6.49013H197.629H198.572H201.041V104.65V104.151V73.138C202.3 72.3259 203.137 70.9152 203.137 69.3045ZM72.2797 91.492L78.0533 97.2635V102.61H72.2756L72.2797 91.492Z" fill="#C4AB69"/>
<path d="M29.3525 64.3886L24.4009 57.3105V69.5013L29.3525 74.451V64.3886Z" fill="#C4AB69"/>
<path d="M136.658 42.5527L131.706 47.5025V81.2027L136.658 86.147V42.5527Z" fill="#C4AB69"/>
<path d="M115.197 42.0181L110.245 37.0684V63.3386L115.197 58.3889V42.0181Z" fill="#C4AB69"/>
<path d="M93.7359 37.0684L88.7843 42.0194V80.4832L93.7359 85.4329V37.0684Z" fill="#C4AB69"/>
<path d="M12.2966 187.437C12.5597 187.437 12.6912 187.539 12.6912 187.741V188.412C12.6912 188.686 12.5583 188.825 12.2966 188.825H7.9808C7.30671 188.825 6.73264 188.726 6.25858 188.53C5.78452 188.334 5.40227 188.084 5.11043 187.778C4.81997 187.471 4.60898 187.121 4.47745 186.726C4.34729 186.332 4.28015 185.935 4.28015 185.536C4.28015 185.01 4.36784 184.51 4.54184 184.035C4.71584 183.561 4.95972 183.149 5.27211 182.797C5.58449 182.445 5.95442 182.166 6.38326 181.956C6.8121 181.748 7.27657 181.645 7.7794 181.645C8.25756 181.645 8.69051 181.725 9.07962 181.884C9.46873 182.042 9.79482 182.267 10.062 182.555C10.3292 182.842 10.536 183.189 10.6868 183.591C10.8375 183.995 10.9115 184.439 10.9115 184.921V187.437H12.2966ZM9.56053 187.437V185.473C9.56053 184.678 9.39612 184.06 9.06866 183.623C8.74258 183.186 8.26852 182.967 7.64924 182.967C7.38618 182.967 7.13545 183.018 6.89705 183.118C6.65865 183.219 6.44217 183.37 6.24899 183.572C6.05581 183.774 5.90235 184.011 5.79001 184.284C5.67629 184.557 5.62011 184.864 5.62011 185.206C5.62011 185.61 5.68314 185.954 5.80782 186.239C5.93387 186.522 6.10513 186.752 6.32161 186.926C6.53945 187.1 6.7847 187.23 7.05598 187.313C7.32863 187.395 7.61772 187.436 7.92326 187.436H9.56053V187.437ZM5.80508 179.048C5.80508 178.828 5.88317 178.64 6.03936 178.484C6.19556 178.328 6.37778 178.25 6.58604 178.25C6.80662 178.25 6.99433 178.328 7.15052 178.484C7.30671 178.64 7.38481 178.828 7.38481 179.048C7.38481 179.269 7.30671 179.455 7.15052 179.607C6.99433 179.761 6.80525 179.837 6.58604 179.837C6.37778 179.837 6.19556 179.761 6.03936 179.607C5.88317 179.455 5.80508 179.268 5.80508 179.048ZM8.09041 179.048C8.09041 178.828 8.16713 178.64 8.32059 178.484C8.47404 178.328 8.65763 178.25 8.87137 178.25C9.09195 178.25 9.27829 178.328 9.43037 178.484C9.58382 178.64 9.66055 178.828 9.66055 179.048C9.66055 179.269 9.58382 179.455 9.43037 179.607C9.27829 179.761 9.09058 179.837 8.87137 179.837C8.65626 179.837 8.47404 179.761 8.32059 179.607C8.16713 179.455 8.09041 179.268 8.09041 179.048Z" fill="#C4AB69"/>
<path d="M12.0683 188.823C11.8052 188.823 11.6737 188.719 11.6737 188.512V187.841C11.6737 187.572 11.8052 187.437 12.0683 187.437H13.537C13.9536 187.437 14.2317 187.319 14.3728 187.083C14.5139 186.848 14.5824 186.531 14.5824 186.133V182.314H15.9429V185.408C15.9429 185.703 15.9731 185.971 16.0347 186.216C16.0964 186.462 16.2046 186.675 16.3608 186.855C16.517 187.035 16.7198 187.178 16.9705 187.282C17.2226 187.386 17.5282 187.438 17.8899 187.438H18.2666C18.5352 187.438 18.6708 187.539 18.6708 187.741V188.412C18.6708 188.687 18.5352 188.824 18.2666 188.824H17.8351C17.3268 188.824 16.8897 188.721 16.5225 188.517C16.1553 188.313 15.9005 187.968 15.7607 187.485C15.6388 187.774 15.5031 188.005 15.3565 188.182C15.2099 188.36 15.0469 188.494 14.8702 188.586C14.692 188.679 14.5002 188.741 14.292 188.773C14.0823 188.808 13.87 188.824 13.6494 188.824H12.0683V188.823ZM13.3904 191.587C13.3904 191.366 13.4672 191.18 13.6206 191.026C13.7727 190.874 13.9577 190.798 14.1714 190.798C14.392 190.798 14.5783 190.874 14.7318 191.026C14.8839 191.18 14.962 191.367 14.962 191.587C14.962 191.802 14.8852 191.984 14.7318 192.137C14.5783 192.289 14.392 192.367 14.1714 192.367C13.9563 192.367 13.7727 192.291 13.6206 192.137C13.4672 191.984 13.3904 191.802 13.3904 191.587ZM15.6676 191.587C15.6676 191.366 15.7443 191.18 15.8964 191.026C16.0498 190.874 16.2334 190.798 16.4485 190.798C16.6691 190.798 16.8568 190.874 17.013 191.026C17.1692 191.18 17.2473 191.367 17.2473 191.587C17.2473 191.802 17.1706 191.984 17.013 192.137C16.8568 192.289 16.6691 192.367 16.4485 192.367C16.2334 192.367 16.0498 192.291 15.8964 192.137C15.7443 191.984 15.6676 191.802 15.6676 191.587Z" fill="#C4AB69"/>
<path d="M18.018 188.826C17.755 188.826 17.6234 188.722 17.6234 188.514V187.843C17.6234 187.575 17.755 187.439 18.018 187.439H18.4592C19.4375 187.439 19.928 186.753 19.928 185.383C19.928 184.845 20.0156 184.351 20.1896 183.901C20.365 183.452 20.6007 183.065 20.9021 182.74C21.2022 182.415 21.5625 182.162 21.9817 181.978C22.401 181.795 22.8545 181.703 23.345 181.703C23.8903 181.703 24.3657 181.798 24.774 181.987C25.1796 182.177 25.5193 182.436 25.7893 182.763C26.0578 183.091 26.2592 183.485 26.3907 183.948C26.5223 184.411 26.588 184.922 26.588 185.486C26.588 185.908 26.5305 186.323 26.414 186.73C26.2976 187.136 26.1126 187.501 25.8591 187.822C25.6057 188.143 25.2727 188.399 24.8631 188.588C24.452 188.778 23.9478 188.873 23.3477 188.873C23.1217 188.873 22.8792 188.857 22.623 188.828C22.3654 188.798 22.1092 188.729 21.8516 188.625C21.5954 188.521 21.3474 188.372 21.1076 188.176C20.8692 187.98 20.6459 187.717 20.4376 187.386C20.2294 187.901 19.9595 188.269 19.6293 188.492C19.2991 188.715 18.8894 188.828 18.3989 188.828L18.018 188.826ZM23.3162 187.542C23.6533 187.542 23.9506 187.484 24.2109 187.368C24.4712 187.251 24.685 187.097 24.8494 186.903C25.0138 186.71 25.1371 186.487 25.2166 186.232C25.296 185.979 25.3358 185.7 25.3358 185.391C25.3358 185.019 25.2796 184.683 25.1659 184.386C25.0521 184.089 24.9014 183.837 24.7124 183.629C24.5219 183.421 24.3041 183.259 24.0561 183.143C23.8081 183.028 23.5615 182.969 23.3162 182.969C23.0408 182.969 22.7778 183.028 22.527 183.143C22.2749 183.259 22.0557 183.421 21.8653 183.629C21.6762 183.837 21.5255 184.089 21.4159 184.386C21.3063 184.682 21.2515 185.019 21.2515 185.391C21.2515 185.698 21.2912 185.978 21.3748 186.232C21.457 186.486 21.5817 186.71 21.7475 186.903C21.9119 187.097 22.1215 187.251 22.3763 187.368C22.6298 187.483 22.9422 187.542 23.3162 187.542Z" fill="#C4AB69"/>
<path d="M36.8336 187.437C37.0912 187.437 37.2186 187.538 37.2186 187.739V188.411C37.2186 188.686 37.0898 188.823 36.8336 188.823H34.9511C34.9319 189.534 34.8168 190.139 34.603 190.64C34.3879 191.142 34.0879 191.552 33.7029 191.872C33.3179 192.189 32.863 192.421 32.3396 192.563C31.8163 192.707 31.2394 192.778 30.6078 192.778C30.3694 192.778 30.1242 192.773 29.8735 192.76C29.6227 192.747 29.3665 192.721 29.1021 192.677C29.1213 192.439 29.1391 192.215 29.1583 192.007C29.1774 191.799 29.198 191.588 29.2227 191.373C29.4857 191.398 29.7419 191.418 29.994 191.433C30.2461 191.448 30.4873 191.457 30.7188 191.457C31.1052 191.457 31.471 191.422 31.8163 191.355C32.1629 191.288 32.4671 191.157 32.7301 190.961C32.9932 190.765 33.2055 190.495 33.3686 190.153C33.5303 189.81 33.6193 189.365 33.6316 188.82H32.0327C31.36 188.82 30.7859 188.723 30.3119 188.526C29.8378 188.331 29.4556 188.079 29.1637 187.774C28.8733 187.468 28.6623 187.118 28.5294 186.722C28.3979 186.327 28.3307 185.932 28.3307 185.533C28.3307 185.007 28.417 184.507 28.5883 184.032C28.7596 183.558 28.9993 183.144 29.309 182.794C29.6186 182.442 29.9858 182.161 30.4146 181.953C30.8421 181.745 31.308 181.641 31.8108 181.641C32.3013 181.641 32.7397 181.72 33.1288 181.879C33.5179 182.038 33.8454 182.262 34.1126 182.55C34.3784 182.838 34.5852 183.184 34.7318 183.587C34.8784 183.991 34.9524 184.435 34.9524 184.918V187.434H36.8336V187.437ZM33.6097 187.437V185.473C33.6097 184.677 33.4385 184.059 33.0959 183.624C32.7534 183.187 32.2876 182.968 31.6998 182.968C31.4367 182.968 31.1792 183.018 30.9284 183.118C30.6763 183.22 30.4585 183.37 30.2722 183.572C30.0845 183.774 29.9351 184.011 29.8214 184.284C29.7077 184.557 29.6515 184.865 29.6515 185.207C29.6515 185.611 29.7145 185.955 29.8392 186.238C29.9639 186.523 30.1365 186.753 30.353 186.927C30.5708 187.101 30.8161 187.23 31.0874 187.312C31.36 187.394 31.6491 187.437 31.9546 187.437H33.6097Z" fill="#C4AB69"/>
<path d="M36.5954 188.826C36.3323 188.826 36.2008 188.722 36.2008 188.514V187.844C36.2008 187.574 36.3323 187.44 36.5954 187.44H41.1866C41.6332 187.44 41.9223 187.328 42.0539 187.103C42.1854 186.88 42.2512 186.57 42.2512 186.172C42.2512 185.591 42.2279 185.103 42.1827 184.707C42.1374 184.313 42.0278 184.001 41.8566 183.772C41.6839 183.542 41.4346 183.379 41.1071 183.282C40.7797 183.185 40.3371 183.135 39.7795 183.135H37.8614V181.767C38.4176 180.874 38.9561 180.004 39.4767 179.161C39.9973 178.316 40.5509 177.451 41.14 176.562C41.3661 176.709 41.5524 176.838 41.699 176.947C41.8456 177.058 42.0237 177.18 42.232 177.316L39.3027 181.831H40.1933C40.6838 181.831 41.1359 181.89 41.5524 182.005C41.9689 182.122 42.3252 182.312 42.6225 182.575C42.9198 182.839 43.1527 183.185 43.3253 183.612C43.4966 184.04 43.5829 184.569 43.5829 185.199C43.5952 186.05 43.7679 186.636 44.1022 186.958C44.4351 187.278 44.9229 187.44 45.5668 187.44H45.9614C46.2245 187.44 46.356 187.54 46.356 187.743V188.414C46.356 188.689 46.2245 188.826 45.9614 188.826H45.5216C45.0064 188.826 44.568 188.731 44.2036 188.542C43.8405 188.352 43.5747 188 43.4103 187.486C43.3007 187.774 43.1691 188.007 43.0198 188.184C42.8705 188.362 42.7101 188.494 42.5389 188.588C42.3663 188.679 42.1786 188.742 41.9744 188.775C41.7703 188.808 41.5524 188.826 41.3263 188.826H36.5954Z" fill="#C4AB69"/>
<path d="M51.7558 187.439C51.4311 187.077 51.1818 186.678 51.0078 186.24C50.8324 185.803 50.7187 185.391 50.6639 185.006C50.4912 183.683 49.8706 183.023 48.7992 183.023C48.5731 183.023 48.2991 183.053 47.9771 183.115C47.6565 183.176 47.3359 183.278 47.018 183.419C46.9632 183.167 46.9043 182.945 46.8399 182.748C46.7755 182.552 46.7152 182.337 46.6604 182.105C46.966 182.019 47.351 181.918 47.814 181.797C48.2758 181.678 48.7361 181.619 49.1951 181.619C49.6541 181.619 50.0555 181.692 50.3981 181.84C50.7406 181.986 51.0256 182.193 51.2516 182.459C51.4777 182.726 51.6572 183.045 51.7901 183.419C51.9202 183.793 52.0079 184.199 52.0518 184.64C52.0888 184.891 52.1271 185.142 52.1655 185.392C52.2052 185.644 52.2683 185.89 52.3532 186.132C52.4395 186.374 52.556 186.6 52.7026 186.811C52.8492 187.022 53.0492 187.207 53.2986 187.367V188.826H45.7137C45.4506 188.826 45.3191 188.722 45.3191 188.515V187.844C45.3191 187.576 45.4506 187.44 45.7137 187.44H51.7558V187.439Z" fill="#C4AB69"/>
<path d="M60.3069 188.825C59.8232 188.825 59.4232 188.762 59.108 188.637C58.7929 188.512 58.5422 188.343 58.3558 188.132C58.1681 187.921 58.0352 187.676 57.9558 187.398C57.8763 187.12 57.8366 186.828 57.8366 186.521V183.804H59.1957V186.154C59.1957 186.68 59.2916 187.026 59.4807 187.191C59.6698 187.356 59.9863 187.439 60.4274 187.439H69.2153V182.316H70.5827V188.825H60.3069ZM62.6758 179.048C62.6758 178.828 62.7525 178.64 62.9046 178.484C63.058 178.328 63.2416 178.25 63.4567 178.25C63.6773 178.25 63.8623 178.328 64.0157 178.484C64.1692 178.64 64.2459 178.828 64.2459 179.048C64.2459 179.269 64.1692 179.455 64.0157 179.607C63.8623 179.761 63.676 179.837 63.4567 179.837C63.2416 179.837 63.058 179.761 62.9046 179.607C62.7525 179.455 62.6758 179.268 62.6758 179.048ZM64.9433 179.048C64.9433 178.828 65.02 178.64 65.1735 178.484C65.3269 178.328 65.5133 178.25 65.7325 178.25C65.9531 178.25 66.1394 178.328 66.2929 178.484C66.4449 178.64 66.523 178.828 66.523 179.048C66.523 179.269 66.4463 179.455 66.2929 179.607C66.1394 179.761 65.9531 179.837 65.7325 179.837C65.5119 179.837 65.3269 179.761 65.1735 179.607C65.02 179.455 64.9433 179.268 64.9433 179.048Z" fill="#C4AB69"/>
<path d="M73.291 176.551H74.6515V187.438H75.9818C76.2449 187.438 76.3764 187.539 76.3764 187.742V188.411C76.3764 188.687 76.2449 188.825 75.9818 188.825H73.291V176.551Z" fill="#C4AB69"/>
<path d="M75.7615 188.826C75.4985 188.826 75.3669 188.722 75.3669 188.514V187.843C75.3669 187.575 75.4985 187.439 75.7615 187.439H76.2027C77.1809 187.439 77.6714 186.753 77.6714 185.383C77.6714 184.845 77.7591 184.351 77.9331 183.901C78.1085 183.452 78.3442 183.065 78.6456 182.74C78.9456 182.415 79.306 182.162 79.7252 181.978C80.1445 181.795 80.598 181.703 81.0885 181.703C81.6338 181.703 82.1092 181.798 82.5175 181.987C82.923 182.177 83.2628 182.436 83.5327 182.763C83.8013 183.091 84.0027 183.485 84.1342 183.948C84.2657 184.411 84.3315 184.922 84.3315 185.486C84.3315 185.908 84.274 186.323 84.1575 186.73C84.0411 187.136 83.8561 187.501 83.6026 187.822C83.3491 188.143 83.0162 188.399 82.6066 188.588C82.1955 188.778 81.6913 188.873 81.0912 188.873C80.8652 188.873 80.6226 188.857 80.3664 188.828C80.1089 188.798 79.8526 188.729 79.5951 188.625C79.3389 188.521 79.0909 188.372 78.8511 188.176C78.6127 187.98 78.3894 187.717 78.1811 187.386C77.9729 187.901 77.703 188.269 77.3728 188.492C77.0426 188.715 76.6329 188.828 76.1424 188.828L75.7615 188.826ZM81.0597 187.542C81.3968 187.542 81.6941 187.484 81.9544 187.368C82.2147 187.251 82.4284 187.097 82.5928 186.903C82.7573 186.71 82.8806 186.487 82.96 186.232C83.0395 185.979 83.0792 185.7 83.0792 185.391C83.0792 185.019 83.0231 184.683 82.9093 184.386C82.7956 184.089 82.6449 183.837 82.4558 183.629C82.2654 183.421 82.0476 183.259 81.7996 183.143C81.5516 183.028 81.305 182.969 81.0597 182.969C80.7843 182.969 80.5213 183.028 80.2705 183.143C80.0184 183.259 79.7992 183.421 79.6088 183.629C79.4197 183.837 79.269 184.089 79.1594 184.386C79.0498 184.682 78.995 185.019 78.995 185.391C78.995 185.698 79.0347 185.978 79.1183 186.232C79.2005 186.486 79.3252 186.71 79.4909 186.903C79.6553 187.097 79.865 187.251 80.1198 187.368C80.3719 187.483 80.6857 187.542 81.0597 187.542Z" fill="#C4AB69"/>
<path d="M94.6232 187.439C94.8863 187.439 95.0178 187.541 95.0178 187.742V188.413C95.0178 188.688 94.8877 188.825 94.6232 188.825H94.2012C93.9683 188.825 93.7422 188.806 93.5258 188.766C93.3079 188.727 93.1079 188.655 92.9243 188.554C92.7407 188.454 92.5804 188.307 92.4434 188.118C92.305 187.929 92.2023 187.684 92.1351 187.384C92.0735 187.636 91.968 187.853 91.8145 188.036C91.6611 188.22 91.4898 188.369 91.3007 188.486C91.1103 188.602 90.9007 188.688 90.6718 188.743C90.4417 188.798 90.2183 188.825 89.9964 188.825H86.0751V187.439H89.8484C90.2526 187.439 90.5335 187.335 90.6897 187.127C90.8458 186.919 90.9239 186.6 90.9239 186.172C90.9239 185.622 90.9048 185.141 90.8637 184.731C90.8239 184.321 90.7184 183.985 90.5472 183.722C90.3759 183.459 90.1252 183.262 89.7936 183.13C89.4634 182.999 89.0072 182.933 88.4262 182.933H87.0575V181.621H88.84C89.4826 181.621 90.0197 181.712 90.4554 181.892C90.8897 182.072 91.2391 182.324 91.5021 182.644C91.7652 182.965 91.9543 183.344 92.0666 183.778C92.1803 184.212 92.2365 184.688 92.2365 185.201C92.2365 185.955 92.3941 186.515 92.7092 186.886C93.0243 187.256 93.5313 187.441 94.2286 187.441H94.6232V187.439Z" fill="#C4AB69"/>
<path d="M100.426 187.437C100.102 187.077 99.8529 186.677 99.6776 186.24C99.5036 185.803 99.3885 185.391 99.3337 185.006C99.161 183.683 98.5404 183.023 97.4689 183.023C97.2429 183.023 96.9675 183.053 96.6469 183.115C96.3263 183.175 96.0057 183.276 95.6864 183.417C95.6316 183.167 95.5727 182.944 95.5083 182.748C95.4439 182.552 95.3837 182.337 95.3302 182.104C95.6358 182.018 96.0208 181.916 96.4825 181.797C96.9456 181.678 97.4059 181.618 97.8635 181.618C98.3225 181.618 98.724 181.692 99.0665 181.838C99.409 181.985 99.6954 182.192 99.9214 182.457C100.147 182.723 100.327 183.044 100.459 183.416C100.59 183.79 100.678 184.197 100.72 184.638C100.757 184.89 100.796 185.139 100.835 185.391C100.875 185.642 100.938 185.888 101.023 186.129C101.108 186.372 101.224 186.599 101.371 186.81C101.518 187.021 101.718 187.206 101.968 187.365V188.825H94.3835C94.1204 188.825 93.9889 188.721 93.9889 188.512V187.843C93.9889 187.573 94.1204 187.437 94.3835 187.437H100.426ZM97.1114 179.048C97.1114 178.828 97.1881 178.64 97.3415 178.484C97.4936 178.328 97.6786 178.25 97.8923 178.25C98.1129 178.25 98.2992 178.328 98.4513 178.484C98.6048 178.64 98.6815 178.828 98.6815 179.048C98.6815 179.269 98.6048 179.455 98.4513 179.607C98.2992 179.761 98.1115 179.837 97.8923 179.837C97.6772 179.837 97.4936 179.761 97.3415 179.607C97.1881 179.455 97.1114 179.268 97.1114 179.048Z" fill="#C4AB69"/>
<path d="M117.48 188.825C117.461 189.485 117.337 190.13 117.107 190.757C116.877 191.384 116.537 191.942 116.084 192.428C115.63 192.914 115.063 193.306 114.383 193.603C113.704 193.9 112.895 194.048 111.96 194.048C110.98 194.048 110.144 193.92 109.454 193.663C108.762 193.406 108.2 193.076 107.769 192.672C107.337 192.268 107.019 191.816 106.818 191.313C106.615 190.812 106.515 190.312 106.515 189.816C106.515 189.405 106.546 189.021 106.611 188.659C106.675 188.299 106.755 187.977 106.849 187.695C106.944 187.414 107.041 187.166 107.138 186.951C107.237 186.736 107.319 186.577 107.385 186.474C107.582 186.566 107.769 186.659 107.945 186.754C108.123 186.848 108.293 186.939 108.46 187.025C108.337 187.288 108.237 187.545 108.156 187.796C108.077 188.023 108.011 188.267 107.955 188.53C107.899 188.793 107.873 189.051 107.873 189.301C107.873 189.767 107.952 190.204 108.111 190.611C108.27 191.016 108.521 191.368 108.865 191.665C109.207 191.962 109.643 192.199 110.172 192.377C110.701 192.555 111.346 192.643 112.105 192.643C112.86 192.643 113.487 192.532 113.993 192.309C114.499 192.084 114.908 191.794 115.223 191.436C115.538 191.079 115.771 190.671 115.921 190.216C116.071 189.76 116.155 189.296 116.173 188.825H114.999C114.201 188.825 113.538 188.723 113.005 188.522C112.472 188.319 112.039 188.051 111.706 187.714C111.372 187.377 111.136 186.996 110.994 186.572C110.853 186.146 110.783 185.698 110.783 185.227C110.783 184.736 110.877 184.275 111.066 183.841C111.257 183.407 111.519 183.026 111.853 182.698C112.186 182.371 112.576 182.112 113.023 181.927C113.47 181.741 113.948 181.648 114.455 181.648C114.927 181.648 115.351 181.727 115.726 181.886C116.104 182.045 116.422 182.266 116.682 182.546C116.943 182.829 117.14 183.165 117.274 183.561C117.409 183.956 117.477 184.38 117.477 184.832V187.439H119.02C119.283 187.439 119.414 187.54 119.414 187.743V188.414C119.414 188.688 119.283 188.826 119.02 188.826L117.48 188.825ZM116.111 187.437V184.747C116.111 184.258 115.948 183.838 115.621 183.49C115.293 183.141 114.841 182.967 114.266 182.967C114.013 182.967 113.764 183.018 113.512 183.118C113.261 183.219 113.032 183.364 112.823 183.554C112.615 183.743 112.449 183.978 112.323 184.257C112.197 184.535 112.135 184.853 112.135 185.208C112.135 185.599 112.206 185.935 112.35 186.213C112.494 186.491 112.687 186.722 112.934 186.904C113.179 187.088 113.461 187.224 113.783 187.309C114.104 187.395 114.446 187.437 114.807 187.437H116.111ZM112.43 179.048C112.43 178.828 112.506 178.64 112.66 178.484C112.812 178.328 113 178.25 113.219 178.25C113.434 178.25 113.618 178.328 113.771 178.484C113.922 178.64 114 178.828 114 179.048C114 179.269 113.923 179.455 113.771 179.607C113.618 179.761 113.434 179.837 113.219 179.837C112.998 179.837 112.812 179.761 112.66 179.607C112.505 179.455 112.43 179.268 112.43 179.048ZM114.705 179.048C114.705 178.828 114.782 178.64 114.936 178.484C115.089 178.328 115.275 178.25 115.496 178.25C115.711 178.25 115.893 178.328 116.045 178.484C116.199 178.64 116.276 178.828 116.276 179.048C116.276 179.269 116.199 179.455 116.045 179.607C115.893 179.761 115.71 179.837 115.496 179.837C115.275 179.837 115.089 179.761 114.936 179.607C114.782 179.455 114.705 179.268 114.705 179.048Z" fill="#C4AB69"/>
<path d="M118.755 188.823C118.492 188.823 118.36 188.719 118.36 188.512V187.841C118.36 187.572 118.492 187.437 118.755 187.437H120.225C120.642 187.437 120.92 187.319 121.061 187.083C121.201 186.848 121.27 186.531 121.27 186.133V182.314H122.631V185.408C122.631 185.703 122.66 185.971 122.723 186.216C122.784 186.462 122.893 186.675 123.049 186.855C123.204 187.035 123.408 187.178 123.659 187.282C123.911 187.386 124.216 187.438 124.578 187.438H124.955C125.223 187.438 125.359 187.539 125.359 187.741V188.412C125.359 188.687 125.223 188.824 124.955 188.824H124.522C124.013 188.824 123.575 188.721 123.209 188.517C122.841 188.313 122.587 187.968 122.447 187.485C122.325 187.774 122.19 188.005 122.043 188.182C121.897 188.36 121.734 188.494 121.557 188.586C121.379 188.679 121.187 188.741 120.977 188.773C120.769 188.808 120.555 188.824 120.336 188.824H118.755V188.823ZM120.078 191.587C120.078 191.366 120.155 191.18 120.309 191.026C120.461 190.874 120.646 190.798 120.859 190.798C121.08 190.798 121.266 190.874 121.42 191.026C121.57 191.18 121.65 191.367 121.65 191.587C121.65 191.802 121.572 191.984 121.42 192.137C121.266 192.289 121.079 192.367 120.859 192.367C120.644 192.367 120.461 192.291 120.309 192.137C120.155 191.984 120.078 191.802 120.078 191.587ZM122.356 191.587C122.356 191.366 122.431 191.18 122.584 191.026C122.738 190.874 122.921 190.798 123.137 190.798C123.357 190.798 123.545 190.874 123.701 191.026C123.857 191.18 123.935 191.367 123.935 191.587C123.935 191.802 123.859 191.984 123.701 192.137C123.545 192.289 123.357 192.367 123.137 192.367C122.921 192.367 122.738 192.291 122.584 192.137C122.431 191.984 122.356 191.802 122.356 191.587Z" fill="#C4AB69"/>
<path d="M124.706 188.823C124.443 188.823 124.311 188.719 124.311 188.512V187.841C124.311 187.572 124.443 187.437 124.706 187.437H126.176C126.592 187.437 126.87 187.319 127.012 187.083C127.153 186.848 127.223 186.531 127.223 186.133V182.314H128.583V185.408C128.583 185.703 128.612 185.971 128.675 186.216C128.735 186.462 128.845 186.675 129.001 186.855C129.156 187.035 129.36 187.178 129.611 187.282C129.863 187.386 130.168 187.438 130.53 187.438H130.907C131.175 187.438 131.311 187.539 131.311 187.741V188.412C131.311 188.687 131.175 188.824 130.907 188.824H130.475C129.967 188.824 129.528 188.721 129.163 188.517C128.794 188.313 128.541 187.968 128.401 187.485C128.279 187.774 128.143 188.005 127.997 188.182C127.85 188.36 127.687 188.494 127.509 188.586C127.331 188.679 127.14 188.741 126.931 188.773C126.722 188.808 126.509 188.824 126.288 188.824H124.706V188.823ZM127.121 191.587C127.121 191.366 127.198 191.18 127.351 191.026C127.505 190.874 127.691 190.798 127.912 190.798C128.127 190.798 128.309 190.874 128.461 191.026C128.615 191.18 128.691 191.367 128.691 191.587C128.691 191.802 128.615 191.984 128.461 192.137C128.309 192.289 128.125 192.367 127.912 192.367C127.691 192.367 127.505 192.291 127.351 192.137C127.196 191.984 127.121 191.802 127.121 191.587Z" fill="#C4AB69"/>
<path d="M130.657 188.824C130.394 188.824 130.263 188.72 130.263 188.513V187.842C130.263 187.573 130.394 187.438 130.657 187.438H133.229V176.551H134.542V184.803C134.859 184.171 135.199 183.643 135.56 183.214C135.921 182.787 136.294 182.447 136.682 182.195C137.067 181.944 137.459 181.763 137.856 181.654C138.255 181.543 138.652 181.488 139.049 181.488C139.668 181.488 140.217 181.602 140.693 181.832C141.171 182.062 141.577 182.377 141.91 182.778C142.244 183.178 142.499 183.647 142.677 184.182C142.855 184.718 142.944 185.294 142.944 185.913C142.944 186.458 143.106 186.849 143.431 187.083C143.756 187.319 144.261 187.436 144.945 187.436H145.101C145.364 187.436 145.496 187.538 145.496 187.739V188.41C145.496 188.685 145.364 188.822 145.101 188.822H144.908C144.388 188.822 143.936 188.735 143.553 188.561C143.17 188.387 142.887 188.033 142.703 187.501C142.472 187.935 142.17 188.264 141.799 188.488C141.428 188.711 141.026 188.822 140.591 188.822L130.657 188.824ZM140.611 187.439C141.022 187.439 141.285 187.331 141.402 187.113C141.517 186.895 141.576 186.545 141.576 186.061C141.576 185.107 141.332 184.331 140.847 183.738C140.36 183.145 139.682 182.848 138.814 182.848C138.256 182.848 137.724 182.976 137.22 183.229C136.715 183.482 136.272 183.826 135.888 184.257C135.506 184.689 135.195 185.182 134.957 185.735C134.718 186.289 134.58 186.857 134.544 187.438L140.611 187.439Z" fill="#C4AB69"/>
<path d="M144.853 188.825C144.59 188.825 144.458 188.721 144.458 188.512V187.843C144.458 187.573 144.59 187.437 144.853 187.437H147.425V182.315H148.792V188.823H144.853V188.825ZM146.093 179.048C146.093 178.828 146.17 178.64 146.323 178.484C146.477 178.328 146.66 178.25 146.874 178.25C147.094 178.25 147.281 178.328 147.433 178.484C147.586 178.64 147.663 178.828 147.663 179.048C147.663 179.269 147.586 179.455 147.433 179.607C147.281 179.761 147.093 179.837 146.874 179.837C146.659 179.837 146.477 179.761 146.323 179.607C146.17 179.455 146.093 179.268 146.093 179.048ZM148.362 179.048C148.362 178.828 148.44 178.64 148.596 178.484C148.752 178.328 148.937 178.25 149.152 178.25C149.373 178.25 149.559 178.328 149.711 178.484C149.865 178.64 149.942 178.828 149.942 179.048C149.942 179.269 149.865 179.455 149.711 179.607C149.559 179.761 149.372 179.837 149.152 179.837C148.937 179.837 148.752 179.761 148.596 179.607C148.44 179.455 148.362 179.268 148.362 179.048Z" fill="#C4AB69"/>
<path d="M165.451 187.439C165.714 187.439 165.845 187.541 165.845 187.742V188.413C165.845 188.689 165.714 188.825 165.451 188.825H165.14C164.93 188.825 164.73 188.819 164.538 188.802C164.345 188.787 164.159 188.745 163.983 188.673C163.805 188.604 163.642 188.5 163.491 188.363C163.342 188.224 163.212 188.042 163.101 187.816C163.101 188.582 162.98 189.261 162.738 189.858C162.497 190.455 162.162 190.959 161.732 191.373C161.303 191.785 160.792 192.102 160.198 192.318C159.604 192.536 158.952 192.644 158.243 192.644C157.318 192.644 156.551 192.512 155.942 192.249C155.333 191.987 154.845 191.644 154.478 191.222C154.11 190.8 153.854 190.333 153.706 189.821C153.558 189.31 153.486 188.805 153.486 188.302C153.486 187.783 153.555 187.263 153.697 186.742C153.838 186.222 154.064 185.744 154.376 185.31C154.579 185.438 154.769 185.547 154.95 185.636C155.13 185.723 155.323 185.833 155.526 185.962C155.311 186.336 155.152 186.72 155.046 187.119C154.942 187.516 154.891 187.912 154.891 188.302C154.891 188.597 154.942 188.915 155.046 189.258C155.15 189.601 155.331 189.92 155.589 190.217C155.846 190.514 156.196 190.762 156.641 190.961C157.084 191.159 157.649 191.259 158.336 191.259C158.777 191.259 159.203 191.198 159.617 191.072C160.031 190.947 160.396 190.753 160.717 190.49C161.039 190.227 161.297 189.89 161.488 189.48C161.682 189.071 161.777 188.582 161.777 188.012V176.557H163.1V185.414C163.1 186.16 163.275 186.685 163.623 186.989C163.972 187.292 164.459 187.442 165.084 187.442H165.451V187.439Z" fill="#C4AB69"/>
<path d="M165.213 188.825C164.95 188.825 164.818 188.721 164.818 188.512V187.843C164.818 187.573 164.95 187.437 165.213 187.437H167.783V182.334H169.116V184.804C169.434 184.174 169.773 183.645 170.134 183.216C170.496 182.789 170.869 182.448 171.251 182.197C171.633 181.945 172.025 181.764 172.427 181.655C172.827 181.545 173.227 181.489 173.624 181.489C174.242 181.489 174.79 181.604 175.268 181.834C175.745 182.064 176.152 182.378 176.485 182.779C176.819 183.179 177.074 183.649 177.251 184.184C177.429 184.719 177.518 185.297 177.518 185.916C177.518 186.459 177.68 186.85 178.004 187.085C178.329 187.321 178.835 187.437 179.518 187.437H179.674C179.938 187.437 180.069 187.539 180.069 187.741V188.412C180.069 188.686 179.938 188.825 179.674 188.825H179.481C178.955 188.825 178.503 188.737 178.122 188.563C177.743 188.389 177.462 188.036 177.277 187.503C177.044 187.937 176.742 188.266 176.373 188.489C176.001 188.712 175.6 188.825 175.164 188.825H165.213ZM175.186 187.437C175.597 187.437 175.859 187.329 175.975 187.111C176.092 186.894 176.151 186.544 176.151 186.059C176.151 185.105 175.907 184.331 175.42 183.738C174.934 183.144 174.256 182.848 173.386 182.848C172.829 182.848 172.298 182.974 171.794 183.227C171.288 183.482 170.844 183.824 170.462 184.256C170.078 184.687 169.769 185.18 169.529 185.733C169.292 186.287 169.153 186.855 169.118 187.436H175.186V187.437ZM172.862 179.048C172.862 178.828 172.939 178.64 173.092 178.484C173.246 178.328 173.43 178.25 173.643 178.25C173.864 178.25 174.05 178.328 174.202 178.484C174.356 178.64 174.432 178.828 174.432 179.048C174.432 179.269 174.356 179.455 174.202 179.607C174.05 179.761 173.864 179.837 173.643 179.837C173.43 179.837 173.246 179.761 173.092 179.607C172.939 179.455 172.862 179.268 172.862 179.048Z" fill="#C4AB69"/>
<path d="M179.419 188.825C179.156 188.825 179.025 188.721 179.025 188.512V187.843C179.025 187.573 179.156 187.437 179.419 187.437H182.276C182.024 187.206 181.817 186.899 181.657 186.52C181.494 186.14 181.413 185.709 181.413 185.225C181.413 184.779 181.5 184.338 181.674 183.902C181.85 183.468 182.1 183.087 182.428 182.76C182.755 182.434 183.145 182.166 183.594 181.957C184.043 181.749 184.541 181.647 185.086 181.647C185.545 181.647 185.96 181.723 186.33 181.877C186.701 182.029 187.018 182.246 187.281 182.527C187.544 182.809 187.745 183.145 187.882 183.533C188.021 183.922 188.088 184.354 188.088 184.831V188.825H179.419ZM186.719 187.437V184.747C186.719 184.546 186.685 184.338 186.614 184.124C186.544 183.909 186.435 183.717 186.289 183.545C186.141 183.374 185.952 183.235 185.719 183.129C185.486 183.02 185.207 182.967 184.883 182.967C184.608 182.967 184.342 183.018 184.084 183.118C183.827 183.219 183.601 183.37 183.405 183.572C183.209 183.774 183.051 184.011 182.932 184.284C182.813 184.557 182.754 184.864 182.754 185.206C182.754 185.733 182.857 186.146 183.065 186.444C183.273 186.744 183.509 186.965 183.772 187.106C184.042 187.272 184.379 187.381 184.782 187.436H186.719V187.437ZM184.323 179.048C184.323 178.828 184.4 178.64 184.553 178.484C184.706 178.328 184.89 178.25 185.104 178.25C185.324 178.25 185.511 178.328 185.663 178.484C185.816 178.64 185.893 178.828 185.893 179.048C185.893 179.269 185.816 179.455 185.663 179.607C185.511 179.761 185.324 179.837 185.104 179.837C184.89 179.837 184.706 179.761 184.553 179.607C184.398 179.455 184.323 179.268 184.323 179.048Z" fill="#C4AB69"/>
<path d="M198.345 176.554V188.825H189.649V187.439H192.596V179.94H193.946V187.439H196.967V176.553H198.345V176.554ZM194.36 175.131C194.236 175.088 194.097 175.067 193.936 175.067C193.673 175.067 193.451 175.131 193.266 175.26C193.083 175.388 192.991 175.586 192.991 175.847C192.991 176.099 193.099 176.331 193.317 176.544C193.535 176.759 193.882 176.865 194.36 176.865H194.534V177.499H191.935V176.865H192.898C192.672 176.699 192.522 176.506 192.448 176.283C192.376 176.059 192.34 175.883 192.34 175.755C192.34 175.394 192.47 175.084 192.735 174.828C192.998 174.571 193.369 174.443 193.846 174.443C194.024 174.443 194.232 174.458 194.471 174.489L194.36 175.131Z" fill="#C4AB69"/>
</svg>
