<svg width="70" height="31" viewBox="0 0 70 31" fill="none" xmlns="http://www.w3.org/2000/svg">
<g clip-path="url(#clip0_111_405)">
<path d="M63.597 4.30576C63.7701 4.21905 63.8566 4.13235 63.9431 4.04564C65.4141 3.09189 66.7985 2.13813 68.1829 1.01096C68.356 0.837552 68.6156 0.664142 68.7886 0.577436C69.1347 0.490731 69.5674 0.577436 69.7404 0.837552C70 1.09767 70 1.53119 69.8269 1.87801C69.7404 2.05142 69.5674 2.22484 69.4808 2.31154C66.2794 5.77975 63.597 9.68148 61.4339 13.93C60.8282 15.0572 60.3955 16.1844 59.9629 17.3982C59.7899 17.8318 59.4437 18.0919 59.0976 18.0919C58.665 18.0919 58.3189 17.8318 58.2324 17.485C58.1459 17.2248 58.1459 17.0514 58.2324 16.7913C59.0976 14.537 60.136 12.3693 61.3473 10.2017C61.78 9.42137 62.2991 8.72773 62.7318 7.94738C63.0779 7.42715 63.5105 6.90692 63.8566 6.29998C63.5105 6.47339 63.1644 6.6468 62.9048 6.82021C62.0395 7.34044 61.2608 7.86067 60.3955 8.3809C60.309 8.3809 60.309 8.46761 60.2225 8.46761C59.8764 8.64102 59.6168 8.72773 59.2707 8.98784C59.1842 8.98784 59.1842 9.07455 59.0976 9.07455C58.5785 9.24796 58.1458 9.50807 57.7132 9.85489C57.021 10.115 56.4153 10.4618 55.8096 10.8954C53.906 11.8491 52.089 12.8029 50.1854 13.6699C46.2052 15.5774 42.0519 17.3115 37.8121 18.6988C36.5142 19.1324 35.1298 19.5659 33.7453 19.826C33.0531 19.9994 32.4475 20.0861 31.7552 20.2595C31.6687 20.2595 31.5822 20.2595 31.4091 20.2595C31.2361 20.2595 30.9765 20.2595 30.8034 20.3462C30.7169 20.3462 30.6304 20.3462 30.5439 20.4329C30.3708 20.4329 30.1112 20.4329 29.9382 20.5196C29.8517 20.5196 29.8517 20.5196 29.7651 20.5196C29.419 20.5196 29.0729 20.5196 28.7268 20.693C28.5538 20.693 28.3807 20.693 28.2076 20.693C28.0346 20.693 27.9481 20.693 27.8615 20.7798C27.775 20.7798 27.6885 20.7798 27.602 20.7798C27.2559 20.7798 26.9098 20.7797 26.5636 20.8665C25.8714 20.8665 25.2657 20.8665 24.5735 20.8665C23.8813 20.7797 23.2756 20.7798 22.5834 20.693C22.4969 20.693 22.4969 20.693 22.4104 20.693C22.1508 20.6063 21.8047 20.6063 21.4586 20.5196C18.6897 20.0861 16.0939 19.3058 13.7577 17.7451C12.8924 17.1381 12.0272 16.5312 11.335 15.8376C11.1619 15.6641 11.0754 15.6641 10.9023 15.9243C10.5562 16.4445 10.2101 16.878 9.77749 17.3115C8.65265 18.1786 7.35475 18.0919 6.40296 17.0514C5.97032 16.6179 5.71074 16.1844 5.53769 15.6641C5.53769 15.5774 5.45116 15.404 5.36464 15.2306C5.01853 15.7508 4.75895 16.2711 4.32632 16.7046C3.46105 17.5717 2.33621 18.0919 1.12483 18.2653C0.519148 18.352 0.086515 18.0919 -1.16192e-05 17.5717C-0.0865382 17.0514 0.173042 16.6179 0.778728 16.4445C1.21136 16.3578 1.64399 16.2711 2.07663 16.011C3.11495 15.4907 3.72063 14.7104 3.89368 13.5832C3.98021 13.2364 4.06674 12.8029 4.15326 12.456C4.32632 11.8491 4.67242 11.5023 5.10506 11.4156C5.62422 11.3289 6.05685 11.589 6.40296 12.1959C6.74906 13.063 6.92211 13.7566 7.09517 14.537C7.18169 14.7971 7.26822 14.9705 7.35475 15.1439C7.44127 15.5774 7.70085 15.9243 8.04696 16.0977C8.13349 16.1844 8.22001 16.1844 8.30654 16.1844C8.47959 16.1844 8.56612 16.0977 8.65265 16.011C8.8257 15.9243 8.99875 15.7508 9.08528 15.4907C9.17181 15.404 9.25833 15.3173 9.25833 15.2306C9.25833 15.1439 9.34486 15.1439 9.34486 15.0572C9.34486 14.9705 9.43139 14.9705 9.43139 14.8838C9.51791 14.7104 9.60444 14.6237 9.69096 14.4503C9.86402 14.2769 9.86402 14.1034 9.95054 13.8433V13.7566C9.95054 13.6699 10.0371 13.5832 10.0371 13.4965C10.0371 13.4965 10.0371 13.4965 10.0371 13.4098C10.3832 13.063 10.7293 12.8896 11.2484 12.9763H11.335C11.335 12.9763 11.4215 12.9763 11.4215 13.063C11.4215 13.063 11.4215 13.063 11.508 13.063C11.7676 13.3231 11.8541 13.6699 12.1137 13.93C13.0655 15.1439 14.2769 16.0977 15.6613 16.878C18.084 18.1786 20.6798 18.7855 23.3622 19.0456C25.4388 19.2191 27.5154 19.1324 29.5921 18.8722C31.5822 18.6121 33.5723 18.1786 35.4759 17.5717C41.4462 15.8376 47.157 13.3231 52.6947 10.4618C55.7231 8.90114 58.665 7.34044 61.5204 5.60634C61.6934 5.51963 61.8665 5.34622 62.0395 5.25952C62.5587 5.08611 63.0779 4.73929 63.597 4.30576Z" fill="#3DAF75"/>
<path d="M56.6749 3.69958C54.6848 3.69958 52.6082 3.35276 50.5315 2.91923C49.9259 2.74582 49.5797 2.3123 49.7528 1.70536C49.8393 1.18513 50.3585 0.925012 50.9642 1.09842C52.5217 1.44524 54.1657 1.79206 55.8097 1.79206C57.9728 1.87877 60.0495 1.61865 62.1261 1.27183C62.2992 1.27183 62.4722 1.18513 62.6453 1.18513C63.2509 1.09842 63.6836 1.44524 63.7701 1.96547C63.8566 2.48571 63.424 2.91923 62.9048 3.00594C62.0396 3.09264 61.2608 3.26605 60.3956 3.35276C59.1842 3.52617 57.9728 3.61287 56.6749 3.69958Z" fill="#3DAF75"/>
<path d="M52.3486 25.9829C52.3486 27.1101 52.3486 28.2373 52.3486 29.3644C52.3486 29.5378 52.3486 29.7979 52.3486 29.9714C52.4351 30.3182 52.262 30.4916 51.9159 30.4049C51.6563 30.4049 51.5698 30.3182 51.5698 30.0581C51.5698 28.2373 51.5698 26.5032 51.5698 24.6823C51.5698 24.5089 51.4833 24.2488 51.7429 24.2488C52.0024 24.2488 52.3486 24.0754 52.5216 24.4222C53.0408 25.376 53.6465 26.3297 54.2521 27.2835C54.5982 27.8037 54.8578 28.324 55.2039 28.7575C55.2039 28.5841 55.2039 28.4974 55.2039 28.324C55.2039 27.0234 55.2039 25.7228 55.2039 24.5089C55.2039 24.1621 55.2905 24.1621 55.55 24.1621C55.8096 24.1621 55.9827 24.1621 55.9827 24.5089C55.9827 26.3297 55.9827 28.1505 55.9827 29.8847C55.9827 30.0581 56.0692 30.3182 55.8096 30.3182C55.55 30.3182 55.2039 30.4916 55.0309 30.1448C54.3387 29.0176 53.6465 27.8904 52.9542 26.6766C52.7812 26.4164 52.6081 26.0696 52.4351 25.8095C52.4351 25.9829 52.3486 25.9829 52.3486 25.9829Z" fill="white"/>
<path d="M62.9913 27.4554C62.9913 26.5883 62.9913 25.6346 62.9913 24.7675C62.9913 24.4207 63.0779 24.334 63.424 24.334C64.0297 24.334 64.5488 24.334 65.1545 24.334C66.4524 24.334 67.1446 24.9409 67.3177 26.1548C67.4042 27.0218 67.4042 27.9756 67.3177 28.8427C67.1446 29.8831 66.4524 30.4034 65.5006 30.4901C64.8084 30.4901 64.1162 30.4901 63.3374 30.4901C63.0779 30.4901 63.0779 30.4033 63.0779 30.1432C62.9913 29.2762 62.9913 28.3224 62.9913 27.4554ZM66.4524 27.4554C66.4524 27.1086 66.4524 26.7617 66.4524 26.4149C66.3659 25.6346 66.0198 25.2877 65.241 25.1143C64.8084 25.0276 64.3758 25.1143 64.0296 25.1143C63.8566 25.1143 63.7701 25.201 63.7701 25.3744C63.7701 26.7617 63.7701 28.149 63.7701 29.5363C63.7701 29.7097 63.7701 29.7964 64.0296 29.7964C64.4623 29.7964 64.8084 29.7964 65.241 29.7964C65.9332 29.7964 66.2793 29.4496 66.4524 28.756C66.5389 28.3224 66.4524 27.8889 66.4524 27.4554Z" fill="white"/>
<path d="M42.7441 24.248C43.3498 24.248 43.8689 24.3348 44.3016 24.6816C44.4746 24.7683 44.7342 24.855 44.4746 25.1151C44.3016 25.2885 44.3016 25.722 43.8689 25.3752C43.5228 25.1151 43.0037 25.0284 42.571 25.0284C42.398 25.0284 42.2249 25.0284 42.0519 25.1151C41.7058 25.2018 41.4462 25.5486 41.4462 25.9822C41.4462 26.4157 41.6192 26.6758 41.9654 26.8492C42.398 27.0226 42.8306 27.0226 43.2633 27.1093C44.4746 27.3694 45.0803 28.2365 44.7342 29.3637C44.4746 30.0573 43.9555 30.4041 43.2633 30.5775C42.3115 30.7509 41.4462 30.5775 40.6675 30.0573C40.4944 29.9706 40.2348 29.8839 40.4944 29.6238C40.6675 29.4504 40.754 29.0168 41.1001 29.3637C41.6192 29.7972 42.2249 29.9706 42.9171 29.8839C43.1767 29.8839 43.3498 29.7972 43.6094 29.6238C44.1285 29.1902 44.042 28.3232 43.4363 28.0631C43.0902 27.8897 42.7441 27.8897 42.398 27.803C42.2249 27.803 42.1384 27.7163 41.9654 27.7163C40.927 27.4561 40.4079 26.8492 40.5809 25.8954C40.6675 24.9417 41.3597 24.3348 42.398 24.3348C42.571 24.248 42.6576 24.248 42.7441 24.248Z" fill="white"/>
<path d="M59.4438 29.1037C59.3572 29.1037 59.1842 29.1037 59.0977 29.1037C58.1459 29.1037 58.1459 29.1037 57.8863 29.9707C57.7998 30.3176 57.6267 30.5777 57.1941 30.491C56.9345 30.491 56.848 30.4043 56.9345 30.1442C57.5402 28.4968 58.1459 26.7626 58.7515 25.1152C58.7515 25.0285 58.8381 24.8551 58.8381 24.7684C58.9246 24.3349 59.1842 24.2482 59.5303 24.3349C59.7033 24.3349 59.7899 24.4216 59.8764 24.595C60.5686 26.5025 61.1743 28.41 61.8665 30.3176C61.953 30.491 61.8665 30.5777 61.6934 30.5777C61.3473 30.5777 61.0878 30.5777 60.9147 30.1442C60.6551 29.1904 60.5686 29.1904 59.5303 29.1904C59.6168 29.1037 59.5303 29.1037 59.4438 29.1037ZM59.4438 25.5488C59.0976 26.5025 58.8381 27.2829 58.5785 28.0632C58.492 28.2366 58.5785 28.2366 58.7515 28.2366C59.2707 28.2366 59.8764 28.2366 60.4821 28.2366C60.136 27.3696 59.7899 26.5025 59.4438 25.5488Z" fill="white"/>
<path d="M45.9456 30.4901C45.5129 30.5768 45.5129 30.4033 45.686 30.1432C46.3782 28.3224 46.9839 26.5016 47.6761 24.6808C47.7626 24.4207 47.9357 24.334 48.1953 24.334C48.4548 24.334 48.6279 24.334 48.7144 24.6808C49.3201 26.5016 50.0123 28.4091 50.7045 30.2299C50.7911 30.5768 50.7045 30.5768 50.445 30.5768C50.0989 30.5768 49.9258 30.4901 49.8393 30.1432C49.7527 29.7964 49.7527 29.3629 49.4932 29.1895C49.2336 29.0161 48.801 29.1028 48.4548 29.1028C48.1087 29.1028 47.6761 29.1028 47.33 29.1028C47.1569 29.1028 47.0704 29.1895 46.9839 29.3629C46.8974 29.623 46.8108 29.8831 46.7243 30.1432C46.3782 30.4033 46.2917 30.5768 45.9456 30.4901ZM48.1087 25.5479C47.7626 26.5016 47.5031 27.3687 47.1569 28.2357C47.8492 28.2357 48.4548 28.2357 49.0605 28.2357C48.7144 27.3687 48.3683 26.5016 48.1087 25.5479Z" fill="white"/>
<path d="M11.7676 9.24866C11.7676 10.2024 11.2485 10.8094 10.5563 10.7226C10.3832 10.7226 10.2101 10.6359 10.0371 10.4625C9.69099 10.029 9.43141 9.50878 9.34488 8.98854C9.25835 8.38161 9.69099 7.77467 10.2101 7.68797C10.8158 7.60126 11.4215 7.86138 11.5946 8.55502C11.6811 8.81513 11.7676 9.07525 11.7676 9.24866Z" fill="#3DAF75"/>
</g>
<defs>
<clipPath id="clip0_111_405">
<rect width="70" height="30" fill="white" transform="translate(0 0.664062)"/>
</clipPath>
</defs>
</svg>
