<svg width="32" height="32" viewBox="0 0 32 32" fill="none" xmlns="http://www.w3.org/2000/svg">
<path d="M11.3134 15.82C11.6762 16.1833 11.88 16.6758 11.88 17.1892C11.88 17.7027 11.6762 18.1951 11.3134 18.5584L10.0553 19.819H20.9234C21.4372 19.819 21.93 20.0232 22.2934 20.3865C22.6567 20.7499 22.8609 21.2427 22.8609 21.7565C22.8609 22.2704 22.6567 22.7632 22.2934 23.1266C21.93 23.4899 21.4372 23.694 20.9234 23.694H10.0553L11.3147 24.9521C11.6781 25.3156 11.8823 25.8086 11.8823 26.3226C11.8823 26.8366 11.6781 27.3296 11.3147 27.693C10.9512 28.0565 10.4582 28.2607 9.9442 28.2607C9.43018 28.2607 8.93721 28.0565 8.57375 27.693L4.0077 23.1257C3.64448 22.7624 3.44043 22.2697 3.44043 21.7559C3.44043 21.2421 3.64448 20.7494 4.0077 20.3861L8.57375 15.8188C8.75367 15.6387 8.96732 15.4959 9.20247 15.3984C9.43762 15.301 9.68966 15.2508 9.9442 15.2508C10.1987 15.2508 10.4508 15.301 10.6859 15.3984C10.9211 15.4959 11.1347 15.6387 11.3147 15.8188L11.3134 15.82ZM20.2 4.19505C20.5389 3.85585 20.9916 3.65436 21.4704 3.62955C21.9492 3.60474 22.4203 3.75836 22.7924 4.06071L22.9397 4.19375L27.5057 8.76109C27.8447 9.10015 28.046 9.55287 28.0705 10.0317C28.0951 10.5105 27.9413 10.9815 27.6387 11.3535L27.5057 11.5007L22.9397 16.068C22.5893 16.4236 22.1153 16.6302 21.6163 16.6448C21.1174 16.6594 20.6321 16.4809 20.2615 16.1465C19.891 15.8121 19.6638 15.3476 19.6273 14.8497C19.5908 14.3519 19.7479 13.8592 20.0657 13.4744L20.1987 13.3271L21.4581 12.069H10.59C10.09 12.0725 9.60797 11.8825 9.24479 11.5387C8.88161 11.195 8.6654 10.7242 8.64138 10.2247C8.61736 9.72519 8.78738 9.23576 9.11589 8.85875C9.44441 8.48174 9.90597 8.24634 10.404 8.2018L10.59 8.19405H21.4581L20.1987 6.93467C20.0187 6.75474 19.8759 6.5411 19.7784 6.30595C19.681 6.0708 19.6308 5.81875 19.6308 5.56421C19.6308 5.30967 19.681 5.05763 19.7784 4.82248C19.8759 4.58733 20.0187 4.37368 20.1987 4.19375L20.2 4.19505Z" fill="#4D4D4D"/>
</svg>
