<svg width="46" height="46" viewBox="0 0 46 46" fill="none" xmlns="http://www.w3.org/2000/svg">
<circle cx="22.1873" cy="23.1873" r="22.1873" fill="white"/>
<mask id="mask0_1016_2040" style="mask-type:alpha" maskUnits="userSpaceOnUse" x="0" y="0" width="46" height="46">
<circle cx="22.6184" cy="22.6184" r="22.6184" fill="white"/>
</mask>
<g mask="url(#mask0_1016_2040)">
<path d="M22.6183 6.46484C27.7251 6.46484 31.8614 10.6011 31.8614 15.7079C31.8614 20.8146 27.7251 24.9509 22.6183 24.9509C17.5115 24.9509 13.3753 20.8146 13.3753 15.7079C13.3753 10.6011 17.5115 6.46484 22.6183 6.46484ZM31.8614 30.8202C31.8614 33.2696 31.2143 38.9772 26.8008 45.3549L24.9291 34.1939L27.1012 29.8497C25.6685 29.688 24.1665 29.5724 22.6183 29.5724C21.0701 29.5724 19.5681 29.688 18.1355 29.8497L20.3076 34.1939L18.4359 45.3549C14.0223 38.9772 13.3753 33.2696 13.3753 30.8202C7.85258 32.4378 4.13226 35.3493 4.13226 38.8155V48.0585H41.1044V38.8155C41.1044 35.3493 37.4072 32.4378 31.8614 30.8202Z" fill="#C4AB69"/>
</g>
</svg>
